Coordinates
version=1
nRows=31
nColumns=33
inDegrees=yes

Units are S.I. units (second, meters, Newtons, ...)
Angles are in degrees.

endheader
time	ground_thorax_rot_x	ground_thorax_rot_y	ground_thorax_rot_z	ground_thorax_tx	ground_thorax_ty	ground_thorax_tz	clav_prot_r	clav_elev_r	scapula_abduction_r	scapula_elevation_r	scapula_upward_rot_r	scapula_winging_r	shoulder_elv_r	plane_of_elev_r	axial_rot_r	elbow_flexion_r	pro_sup_r	wrist_flex_r	wrist_dev_r	clav_prot_l	clav_elev_l	scapula_abduction_l	scapula_elevation_l	scapula_upward_rot_l	scapula_winging_l	shoulder_elv_l	plane_of_elev_l	axial_rot_l	elbow_flexion_l	pro_sup_l	wrist_flex_l	wrist_dev_l	
8.1900	38.044819	10.880075	9.798760	-75.452312	778.073882	22.312860	10.366753	36.905366	45.000000	34.094208	-3.831219	-2612.303187	-3183.116274	27.993371	59.576859	1447.682556	1.259396	12.384281	15.058695	4.960680	-45.000000	-44.999999	45.000000	-24.371595	443.801169	-102.801442	138.962377	155.154161	-350.955089	24.277223	8.622156	-16.971368	
8.2000	38.137306	10.683742	9.857350	-76.718576	777.736712	22.468983	10.254393	37.028671	45.000000	34.147733	-3.666971	-2612.537190	-3183.112107	27.958675	60.687725	1447.698759	3.590820	13.265281	14.464170	4.876650	-45.000000	-44.999999	45.000000	-24.220423	443.970300	-102.836159	138.983527	155.094220	-351.010168	24.390025	8.594288	-16.983296	
8.2100	38.227742	10.479079	9.914891	-77.943054	777.427681	22.604371	10.142852	37.173199	45.000000	34.217123	-3.559711	-2612.738112	-3183.141290	27.962394	61.711507	1447.686437	5.908291	14.166268	13.868971	4.786624	-45.000000	-44.999997	45.000000	-24.024464	444.163374	-102.905874	139.005186	155.074493	-351.100640	24.493199	8.567540	-16.995071	
8.2200	38.305035	10.369947	9.991275	-79.048695	777.190728	22.685651	10.099347	37.288850	45.000000	34.298924	-3.559895	-2612.894878	-3183.120024	27.969964	62.323332	1447.736730	8.302401	14.870991	13.376219	4.758691	-45.000000	-44.999995	45.000000	-23.974917	444.323108	-102.933009	139.012779	155.073403	-351.128386	24.569538	8.536268	-17.005688	
8.2300	38.372242	10.315315	10.067065	-80.059671	777.017822	22.719164	10.102821	37.391352	45.000000	34.390091	-3.630944	-2613.010071	-3183.074354	27.989873	62.630399	1447.823192	10.696492	15.432174	12.955365	4.757894	-45.000000	-44.999992	45.000000	-24.005561	444.460175	-102.930228	139.012387	155.087688	-351.120953	24.623909	8.510845	-17.019486	
8.2400	38.432172	10.307142	10.143479	-80.985422	776.908899	22.705164	10.137073	37.491001	45.000000	34.496918	-3.778342	-2613.084106	-3183.016855	28.030819	62.677736	1447.931757	13.046056	15.884716	12.601656	4.784944	-45.000000	-44.999985	45.000000	-24.074780	444.598347	-102.929512	139.003031	155.134874	-351.099372	24.654447	8.475561	-17.027720	
8.2500	38.482947	10.329038	10.210938	-81.855124	776.853370	22.651965	10.196732	37.582838	45.000000	34.609247	-3.954381	-2613.130087	-3182.948106	28.073506	62.546920	1448.066691	15.300936	16.230283	12.303931	4.818838	-45.000000	-44.999973	45.000000	-24.179597	444.722286	-102.907408	138.991902	155.188197	-351.058686	24.667859	8.445264	-17.037656	
8.2600	38.531175	10.354584	10.259975	-82.698321	776.839827	22.568646	10.255681	37.686662	45.000000	34.731324	-4.145737	-2613.159408	-3182.890119	28.132817	62.346125	1448.199464	17.392973	16.532915	12.037945	4.851814	-45.000000	-44.999952	45.000000	-24.263359	444.854899	-102.891226	138.975001	155.256276	-351.024572	24.667563	8.410973	-17.044905	
8.2700	38.576309	10.389054	10.293190	-83.534825	776.861322	22.460880	10.319767	37.786809	45.000000	34.853355	-4.312332	-2613.183183	-3182.824691	28.177716	62.109235	1448.347191	19.287777	16.761918	11.812275	4.875381	-45.000000	-44.999914	45.000000	-24.358877	444.972020	-102.853597	138.964697	155.313241	-350.971770	24.658321	8.386057	-17.058104	
8.2800	38.620652	10.427201	10.312747	-84.375485	776.915087	22.331104	10.375995	37.895267	45.000000	34.982413	-4.475558	-2613.206086	-3182.767818	28.226140	61.874769	1448.486251	20.954674	16.961277	11.615343	4.898879	-45.000000	-44.999847	45.000000	-24.436510	445.096464	-102.816676	138.950820	155.377660	-350.920755	24.639559	8.356612	-17.069984	
8.2900	38.663009	10.468452	10.315734	-85.228289	776.999443	22.180379	10.433565	38.004415	45.000000	35.112397	-4.617968	-2613.231249	-3182.709821	28.266165	61.643100	1448.627001	22.388234	17.107508	11.454312	4.917287	-45.000000	-44.999726	45.000000	-24.521538	445.213279	-102.756217	138.933310	155.432853	-350.854562	24.613829	8.333435	-17.087162	
8.3000	38.706906	10.507232	10.300164	-86.099539	777.112746	22.008402	10.483161	38.122466	45.000000	35.247046	-4.749714	-2613.261423	-3182.657958	28.312911	61.431126	1448.750861	23.573357	17.232441	11.315872	4.933985	-45.000000	-44.999508	45.000000	-24.590948	445.335481	-102.687441	138.907425	155.490654	-350.784416	24.580549	8.308865	-17.106552	
8.3100	38.752316	10.541509	10.269950	-86.995844	777.251863	21.813901	10.529412	38.242416	45.000000	35.382273	-4.863843	-2613.295967	-3182.603316	28.361462	61.240789	1448.867476	24.525252	17.323925	11.208568	4.947849	-45.000000	-44.999120	45.000000	-24.656963	445.465404	-102.607514	138.872102	155.546498	-350.701599	24.540542	8.282884	-17.129331	
8.3200	38.794382	10.581343	10.241835	-87.920251	777.412021	21.591944	10.567688	38.359461	45.000000	35.520572	-4.979095	-2613.332333	-3182.548813	28.406202	61.073952	1448.969373	25.269881	17.409083	11.119057	4.962435	-45.000000	-44.998418	45.000000	-24.708692	445.606004	-102.528166	138.838118	155.613710	-350.621058	24.494197	8.250986	-17.153181	
8.3300	38.828639	10.612408	10.207400	-88.872676	777.586124	21.334108	10.603956	38.471708	45.000000	35.652959	-5.097769	-2613.372062	-3182.494105	28.464538	60.922883	1449.064243	25.845306	17.476053	11.051696	4.980833	-45.000000	-44.997184	45.000000	-24.758818	445.767073	-102.434192	138.783551	155.684871	-350.540483	24.443556	8.214359	-17.179314	
8.3400	38.845233	10.654092	10.193480	-89.844953	777.757703	21.019864	10.634534	38.560218	45.000000	35.780152	-5.227170	-2613.406128	-3182.430390	28.506277	60.781868	1449.155931	26.274926	17.539332	10.995279	4.995624	-45.000000	-44.994905	45.000000	-24.803690	445.931810	-102.328298	138.742732	155.770758	-350.469114	24.393623	8.182399	-17.216597	
8.3500	38.841036	10.684144	10.188038	-90.825514	777.906605	20.624346	10.663967	38.639932	44.999999	35.898510	-5.373838	-2613.441602	-3182.366936	28.565238	60.647542	1449.244071	26.582618	17.590369	10.953847	5.013776	-45.000000	-44.991016	45.000000	-24.846283	446.127956	-102.204376	138.676313	155.876069	-350.417199	24.349156	8.146130	-17.262234	
8.3600	38.795930	10.731858	10.244878	-91.769815	777.967878	20.067423	10.694735	38.689918	44.999998	36.018745	-5.569880	-2613.456166	-3182.287031	28.594995	60.505476	1449.339719	26.798848	17.648423	10.917991	5.026357	-45.000000	-44.983511	45.000000	-24.893014	446.334146	-102.063563	138.630156	156.046254	-350.406663	24.329754	8.119628	-17.339173	
8.3700	38.708351	10.755166	10.328807	-92.651370	777.902725	19.302229	10.736759	38.744863	44.999997	36.139490	-5.824427	-2613.468131	-3182.215918	28.659990	60.351201	1449.430328	26.946780	17.699921	10.883821	5.045174	-45.000000	-44.971567	45.000000	-24.952748	446.585656	-101.883362	138.529231	156.284878	-350.453058	24.348218	8.095427	-17.447850	
8.3800	38.491304	10.779669	10.582968	-93.260654	777.422729	17.971484	10.808222	38.750966	44.999995	36.265214	-6.265666	-2613.417997	-3182.118142	28.714771	60.134480	1449.545287	27.048790	17.771215	10.847932	5.056380	-45.000000	-44.945986	45.000000	-25.064654	446.900085	-101.632150	138.402139	156.775067	-350.653336	24.494289	8.103984	-17.666855	
8.3900	38.176059	10.761171	10.919895	-93.663894	776.620976	16.193423	10.890693	38.736260	44.999991	36.378516	-6.801036	-2613.351187	-3182.018716	28.809087	59.906525	1449.667895	27.131297	17.850933	10.816879	5.076064	-45.000000	-44.911849	45.000000	-25.179968	447.282727	-101.313851	138.213567	157.413541	-350.981263	24.752255	8.121943	-17.959703	
8.4000	37.782734	10.732549	11.344005	-93.924886	775.585076	14.076477	10.958997	38.681375	44.999984	36.481875	-7.378583	-2613.256778	-3181.894670	28.876155	59.695109	1449.812823	27.209863	17.947144	10.774583	5.084269	-45.000000	-44.882892	45.000000	-25.256275	447.707207	-100.969473	138.037658	158.156972	-351.396445	25.096780	8.157122	-18.316484	
8.4100	37.432828	10.666294	11.669398	-94.332596	774.710098	12.109379	10.988039	38.642994	44.999971	36.572779	-7.814074	-2613.212510	-3181.788756	28.959360	59.569035	1449.947939	27.295367	18.039508	10.734009	5.098052	-45.000000	-44.869283	45.000000	-25.229083	448.124428	-100.654457	137.874386	158.756466	-351.767112	25.405842	8.169285	-18.632552	
8.4200	37.133841	10.609436	11.938880	-94.926993	774.046628	10.349541	10.981459	38.609050	44.999948	36.667757	-8.146748	-2613.182667	-3181.677470	29.003641	59.491242	1450.086726	27.384323	18.127702	10.670145	5.097647	-45.000000	-44.866229	45.000000	-25.140532	448.520080	-100.385072	137.761952	159.231692	-352.071105	25.650115	8.176105	-18.912242	
8.4300	36.985745	10.553416	12.028444	-95.929303	773.895963	9.167870	10.942322	38.628594	44.999907	36.780666	-8.276050	-2613.221993	-3181.593913	29.051731	59.489775	1450.201990	27.476672	18.205241	10.617475	5.100449	-45.000000	-44.864545	45.000000	-24.987758	448.829745	-100.199130	137.713135	159.413983	-352.210376	25.732506	8.140855	-19.076440	
8.4400	36.970282	10.545233	12.027735	-97.288632	774.186270	8.471898	10.894687	38.697825	44.999833	36.945453	-8.322680	-2613.273357	-3181.520879	29.063281	59.496836	1450.301767	27.561626	18.263317	10.539473	5.094636	-45.000000	-44.850959	45.000000	-24.868903	449.070500	-100.095282	137.722222	159.401865	-352.201674	25.661846	8.088630	-19.156920	
8.4500	37.077863	10.577115	11.954428	-98.958083	774.854993	8.184161	10.880262	38.830275	44.999701	37.170570	-8.357989	-2613.342934	-3181.473310	29.087927	59.471203	1450.379003	27.637341	18.311150	10.472755	5.096085	-45.000000	-44.791312	45.000000	-24.853111	449.227934	-100.041579	137.759353	159.247369	-352.072349	25.456678	8.009039	-19.163194	
8.4600	37.201417	10.662403	11.959925	-100.697865	775.577518	7.903609	10.921481	38.981537	44.999464	37.445274	-8.549886	-2613.364285	-3181.416908	29.108292	59.339749	1450.454605	27.699513	18.348564	10.382356	5.090157	-45.000000	-44.659848	45.000000	-25.030331	449.365935	-99.972472	137.774663	159.156562	-351.937126	25.223265	7.938919	-19.179982	
8.4700	37.338752	10.781029	12.017868	-102.500272	776.350021	7.630545	11.015913	39.149174	44.999041	37.748147	-8.860926	-2613.366860	-3181.352872	29.153822	59.141154	1450.528691	27.755790	18.392731	10.311095	5.085020	-45.000000	-44.447183	45.000000	-25.361903	449.458196	-99.876384	137.783306	159.103924	-351.802522	24.982123	7.861334	-19.199641	
8.4800	37.482106	10.931863	12.129504	-104.360171	777.169881	7.365673	11.138263	39.325442	44.998281	38.070557	-9.263733	-2613.342357	-3181.274972	29.196978	58.895908	1450.601903	27.804950	18.428653	10.220038	5.070416	-45.000000	-44.166237	45.000000	-25.820948	449.534017	-99.762593	137.773485	159.079968	-351.669766	24.745863	7.787372	-19.224360	
8.4900	37.627941	11.097660	12.266508	-106.275012	778.035688	7.109846	11.294244	39.518774	44.996923	38.395620	-9.742112	-2613.310132	-3181.182479	29.266868	58.616677	1450.674845	27.848813	18.469056	10.140332	5.051175	-45.000000	-43.822490	45.000000	-26.378520	449.576253	-99.613205	137.749464	159.076996	-351.544472	24.522046	7.710560	-19.251587	
